<svg width="48" height="48" viewBox="0 0 48 48" fill="none" xmlns="http://www.w3.org/2000/svg">
<path opacity="0.4" d="M14.8612 38.137C16.5212 38.137 17.8812 39.497 17.8812 41.177C17.8812 42.837 16.5212 44.197 14.8612 44.197C13.1812 44.197 11.8212 42.837 11.8212 41.177C11.8212 39.497 13.1812 38.137 14.8612 38.137ZM37.3612 38.137C39.0212 38.137 40.3812 39.497 40.3812 41.177C40.3812 42.837 39.0212 44.197 37.3612 44.197C35.6812 44.197 34.3212 42.837 34.3212 41.177C34.3212 39.497 35.6812 38.137 37.3612 38.137Z" fill="url(#paint0_linear_1_1186)"/>
<path d="M5.55779 4.99952L5.76161 5.01599L10.5316 5.73599C11.2116 5.85799 11.7116 6.41599 11.7716 7.09599L12.1516 11.576C12.2116 12.218 12.7316 12.698 13.3716 12.698H40.3816C41.6016 12.698 42.4016 13.118 43.2016 14.038C44.0016 14.958 44.1416 16.278 43.9616 17.476L42.0616 30.596C41.7016 33.118 39.5416 34.976 37.0016 34.976H15.1816C12.5216 34.976 10.3216 32.936 10.1016 30.298L8.26161 8.49599L5.24161 7.97599C4.44161 7.83599 3.88161 7.05599 4.02161 6.25599C4.16161 5.43599 4.94161 4.89599 5.76161 5.01599L5.55779 4.99952ZM33.8016 20.096H28.2616C27.4216 20.096 26.7616 20.756 26.7616 21.596C26.7616 22.416 27.4216 23.096 28.2616 23.096H33.8016C34.6416 23.096 35.3016 22.416 35.3016 21.596C35.3016 20.756 34.6416 20.096 33.8016 20.096Z" fill="url(#paint1_linear_1_1186)"/>
<defs>
<linearGradient id="paint0_linear_1_1186" x1="24.862" y1="37.5534" x2="31.1748" y2="49.947" gradientUnits="userSpaceOnUse">
<stop stop-color="#8D1CFE"/>
<stop offset="1" stop-color="#0038ED"/>
</linearGradient>
<linearGradient id="paint1_linear_1_1186" x1="22.2788" y1="2.11269" x2="55.0806" y2="20.3601" gradientUnits="userSpaceOnUse">
<stop stop-color="#8D1CFE"/>
<stop offset="1" stop-color="#0038ED"/>
</linearGradient>
</defs>
</svg>
